<svg fill="none" xmlns="http://www.w3.org/2000/svg" viewBox="0 0 71 71"><path d="M34.572 69.27c-.613-.437-1.284-.875-1.81-1.4L12.187 47.295c-.759-.759-1.226-1.576-.904-2.657a2.4 2.4 0 0 1 3.796-1.227l.613.612 16.373 16.373c.175.175.233.409.35.642.087-.087.175-.175.292-.233v-.76L32.73 3.99c0-.409 0-.876.088-1.256.322-1.138 1.402-1.869 2.511-1.752 1.168.116 2.073 1.08 2.19 2.247l-.001.876-.022 55.881v.934l.613-.613L54.64 43.775c.818-.818 1.723-1.198 2.861-.819.818.292 1.197.963 1.576 1.693v1.05c-.497.673-.964 1.373-1.52 1.987L37.464 67.78c-.526.525-1.227.934-1.81 1.402H34.6l-.029.088Z" fill="#fff"/></svg>