<svg xmlns="http://www.w3.org/2000/svg" fill="none" viewBox="0 0 34 34"><g clip-path="url(#a)"><path d="M23.933 7.183V5.99c.001-.387-.032-.34.347-.341.857-.002 1.714-.001 2.572 0 .386 0 .335-.022.335.323.002 1.407.004 2.814-.003 4.221-.001.193.06.32.2.456.888.851 1.763 1.716 2.642 2.575.913.892 1.827 1.783 2.743 2.672.09.088.15.174.148.312-.008.522-.002 1.043-.004 1.566-.001.205-.006.208-.224.208-.578.002-1.155-.001-1.734.001-.408.002-.346-.041-.346.334-.003 1.91-.001 3.82-.001 5.73v9.617c0 .358.046.332-.327.332-2.888 0-5.777 0-8.666.004a.711.711 0 0 1-.48-.169c-1.5-1.211-2.986-2.44-4.511-3.619-.213-.164-.212-.166-.41-.007a1818.084 1818.084 0 0 0-4.545 3.667.516.516 0 0 1-.354.126c-2.944-.002-5.889-.002-8.834-.002-.227 0-.23-.003-.23-.227-.002-.83-.001-1.659-.001-2.489V18.284c-.005-.323.048-.3-.297-.3-.578-.002-1.155 0-1.733-.002-.213 0-.217-.004-.218-.213C0 17.255.006 16.743 0 16.23a.404.404 0 0 1 .137-.316c1.1-1.075 2.195-2.153 3.293-3.23.818-.802 1.637-1.602 2.455-2.405l6.663-6.537L15.922.437c.1-.098.2-.194.302-.29.211-.198.213-.2.429.011l3.914 3.832c1.032 1.009 2.066 2.017 3.1 3.026.066.064.136.124.204.185l.061-.02.001.002ZM18.624 28.22c.087.07.143.119.202.164 1.164.883 2.33 1.765 3.494 2.652a.633.633 0 0 0 .41.133c1.566-.004 3.13-.002 4.696-.003.382 0 .344.042.344-.343 0-5.06-.001-10.12.005-15.178a.686.686 0 0 0-.22-.536c-3.641-3.632-7.277-7.27-10.913-10.908-.065-.066-.111-.15-.153-.208-.155.062-.215.15-.286.221-3.63 3.63-7.26 7.261-10.895 10.887a.685.685 0 0 0-.223.534c.006 3.755.005 7.51.005 11.265v3.97c0 .295 0 .297.278.297 1.742 0 3.485-.001 5.227.002a.538.538 0 0 0 .378-.135c.774-.655 1.555-1.303 2.334-1.955l.863-.727c-.03-.104-.1-.138-.157-.183a37.024 37.024 0 0 1-1.835-1.549c-.885-.802-1.735-1.637-2.445-2.602-1-1.36-1.389-2.884-1.085-4.54.644-3.51 4.428-5.328 7.529-3.98a.52.52 0 0 0 .47.006 5.085 5.085 0 0 1 2.447-.44c1.61.108 2.945.794 3.983 2.003 1.13 1.316 1.423 2.875 1.118 4.558-.188 1.036-.666 1.922-1.378 2.698-.973 1.058-2.03 2.025-3.111 2.968-.35.305-.704.605-1.082.93Zm-2.19-9.199c-.149-.138-.29-.273-.434-.405-.618-.564-1.327-.887-2.181-.812-1.77.156-2.882 1.766-2.418 3.479.171.631.523 1.148.946 1.626 1.161 1.309 2.506 2.414 3.87 3.498.122.097.195.081.305-.012a89.93 89.93 0 0 0 2.463-2.15c.68-.622 1.36-1.244 1.959-1.95.176-.207.323-.43.418-.688.414-1.125.245-2.471-.936-3.273-1.16-.788-2.47-.713-3.511.229-.166.15-.324.307-.48.457l-.002.001Zm84.045 1.569c.164-.16.28-.274.399-.387.859-.812 " fill="#041D76"/></g></svg>