<svg viewBox="0 0 46 46" fill="none" xmlns="http://www.w3.org/2000/svg">
<g clip-path="url(#clip0_104_112)">
<path d="M22.9998 5.75L1.9165 21.85L4.23567 24.8975L7.6665 22.2717V40.25H38.3332V22.2717L41.764 24.8783L44.0832 21.85L22.9998 5.75ZM15.3332 28.75C14.279 28.75 13.4165 27.8875 13.4165 26.8333C13.4165 25.7792 14.279 24.9167 15.3332 24.9167C16.3873 24.9167 17.2498 25.7792 17.2498 26.8333C17.2498 27.8875 16.3873 28.75 15.3332 28.75ZM22.9998 28.75C21.9457 28.75 21.0832 27.8875 21.0832 26.8333C21.0832 25.7792 21.9457 24.9167 22.9998 24.9167C24.054 24.9167 24.9165 25.7792 24.9165 26.8333C24.9165 27.8875 24.054 28.75 22.9998 28.75ZM30.6665 28.75C29.6123 28.75 28.7498 27.8875 28.7498 26.8333C28.7498 25.7792 29.6123 24.9167 30.6665 24.9167C31.7207 24.9167 32.5832 25.7792 32.5832 26.8333C32.5832 27.8875 31.7207 28.75 30.6665 28.75Z" fill="#284256"/>
<path d="M44.0833 7.66671C44.0833 7.67207 44.0831 7.68819 44.0712 7.72234C44.0584 7.75909 44.0292 7.82454 43.9637 7.91786C43.8266 8.11324 43.5637 8.38332 43.1045 8.70001C42.1777 9.3391 40.7113 9.99141 38.7268 10.5702C34.7832 11.7204 29.2224 12.4584 23 12.4584C16.7776 12.4584 11.2168 11.7204 7.27321 10.5702C5.28873 9.99141 3.82231 9.3391 2.89553 8.70001C2.43628 8.38332 2.17338 8.11324 2.0363 7.91786C1.97083 7.82454 1.94162 7.75909 1.92883 7.72234C1.91694 7.68819 1.91667 7.67207 1.91667 7.66671C1.91667 7.66134 1.91694 7.64522 1.92883 7.61107C1.94162 7.57433 1.97083 7.50887 2.0363 7.41555C2.17338 7.22017 2.43628 6.95009 2.89553 6.6334C3.82231 5.99431 5.28873 5.34201 7.27321 4.7632C11.2168 3.613 16.7776 2.87504 23 2.87504C29.2224 2.87504 34.7832 3.613 38.7268 4.7632C40.7113 5.34201 42.1777 5.99431 43.1045 6.6334C43.5637 6.95009 43.8266 7.22017 43.9637 7.41555C44.0292 7.50887 44.0584 7.57433 44.0712 7.61107C44.0831 7.64522 44.0833 7.66134 44.0833 7.66671Z" stroke="#284256" stroke-width="3.83333"/>
<line x1="5.75" y1="44.0833" x2="40.25" y2="44.0833" stroke="#284256" stroke-width="3.83333"/>
</g>
<defs>
<clipPath id="clip0_104_112">
<rect width="46" height="46" fill="white"/>
</clipPath>
</defs>
</svg>
