<svg xmlns="http://www.w3.org/2000/svg" viewBox="0 0 46 46" fill="none"><path d="M5.18663 5.89469C6.8117 5.89469 8.11176 4.59464 8.11176 2.96956C8.11176 1.34449 6.8117 0.0444336 5.18663 0.0444336C3.56156 0.0444336 2.2615 1.34449 2.2615 2.96956C2.2615 4.59464 3.56156 5.89469 5.18663 5.89469Z" fill="#FCBC32"></path><path d="M6.21589 19.1121C8.70767 18.5163 10.2786 16.0245 9.68271 13.5327C9.08685 11.0409 6.59507 9.47003 4.1033 10.0659C1.61152 10.6617 0.0406157 13.1535 0.636475 15.6453C1.23234 18.1912 3.72411 19.708 6.21589 19.1121Z" fill="#FCBC32"></path><path d="M6.21589 42.3506C8.70767 41.7547 10.2786 39.263 9.68271 36.7712C9.08685 34.2794 6.59507 32.7085 4.1033 33.3044C1.61152 33.9002 0.0406157 36.392 0.636475 38.8838C1.23234 41.3756 3.72411 42.9465 6.21589 42.3506Z" fill="#FCBC32"></path><path d="M8.05767 26.208C8.05767 24.583 6.75761 23.2829 5.13254 23.2829C3.50747 23.2829 2.20741 24.583 2.20741 26.208C2.20741 27.8331 3.50747 29.1332 5.13254 29.1332C6.75761 29.1332 8.05767 27.8331 8.05767 26.208Z" fill="#FCBC32"></path><path d="M23.0082 25.8832C20.4623 25.8832 18.3497 27.9416 18.3497 30.5417C18.3497 33.0877 20.4081 35.2003 23.0082 35.2003C25.5542 35.2003 27.6668 33.1418 27.6668 30.5417C27.6126 27.9416 25.5542 25.8832 23.0082 25.8832Z" fill="#FCBC32"></path><path d="M23.0083 39.2088C21.3833 39.2088 20.0832 40.5089 20.0832 42.134C20.0832 43.759 21.3833 45.0591 23.0083 45.0591C24.6334 45.0591 25.9335 43.759 25.9335 42.134C25.8793 40.5089 24.5792 39.2088 23.0083 39.2088Z" fill="#FCBC32"></path><path d="M23.0083 21.8203C24.6334 21.8203 25.9335 20.5203 25.9335 18.8952C25.9335 17.2701 24.6334 15.9701 23.0083 15.9701C21.3833 15.9701 20.0832 17.2701 20.0832 18.8952C20.0832 20.5203 21.3833 21.8203 23.0083 21.8203Z" fill="#FCBC32"></path><path d="M23.4416 10.1742C25.0125 9.90332 26.0959 8.44076 25.8251 6.86985C25.5542 5.29895 24.0916 4.21557 22.5207 4.48641C20.9498 4.75726 19.8665 6.21982 20.1373 7.79073C20.4081 9.36163 21.8707 10.3908 23.4416 10.1742Z" fill="#FCBC32"></path><path d="M44.08 17.8662C45.8676 16.0786 45.8676 13.0993 44.08 11.3117C42.2924 9.52413 39.3131 9.52413 37.5256 11.3117C35.738 13.0993 35.738 16.0786 37.5256 17.8662C39.3131 19.7079 42.2924 19.7079 44.08 17.8662Z" fill="#FCBC32"></path><path d="M40.8299 5.89469C42.455 5.89469 43.755 4.59464 43.755 2.96956C43.755 1.34449 42.455 0.0444336 40.8299 0.0444336C39.2048 0.0444336 37.9048 1.34449 37.9048 2.96956C37.9048 4.59464 39.2048 5.89469 40.8299 5.89469Z" fill="#FCBC32"></path><path d="M40.8299 23.3371C39.2048 23.3371 37.9048 24.6372 37.9048 26.2623C37.9048 27.8873 39.2048 29.1874 40.8299 29.1874C42.455 29.1874 43.755 27.8873 43.755 26.2623C43.7009 24.6372 42.4008 23.3371 40.8299 23.3371Z" fill="#FCBC32"></path><path d="M40.8299 34.9293C39.2048 34.9293 37.9048 36.2293 37.9048 37.8544C37.9048 39.4795 39.2048 40.7795 40.8299 40.7795C42.455 40.7795 43.755 39.4795 43.755 37.8544C43.7009 36.2293 42.4008 34.9293 40.8299 34.9293Z" fill="#FCBC32"></path></svg>